<svg xmlns="http://www.w3.org/2000/svg" version="1.1" xmlns:xlink="http://www.w3.org/1999/xlink" xmlns:svgjs="http://svgjs.dev/svgjs" width="1500" height="1500" viewBox="0 0 1500 1500"><rect width="1500" height="1500" fill="#ffffff"></rect><g transform="matrix(0.6666666666666666,0,0,0.6666666666666666,249.39393939393938,584.6161324584857)"><svg viewBox="0 0 396 131" data-background-color="#14293a" preserveAspectRatio="xMidYMid meet" height="496" width="1500" xmlns="http://www.w3.org/2000/svg" xmlns:xlink="http://www.w3.org/1999/xlink"><g id="tight-bounds" transform="matrix(1,0,0,1,0.2400000000000091,0.020020104652331838)"><svg viewBox="0 0 395.52 129.95995979069534" height="129.95995979069534" width="395.52"><g><svg viewBox="0 0 395.52 129.95995979069534" height="129.95995979069534" width="395.52"><g><svg viewBox="0 0 395.52 129.95995979069534" height="129.95995979069534" width="395.52"><g id="textblocktransform"><svg viewBox="0 0 395.52 129.95995979069534" height="129.95995979069534" width="395.52" id="textblock"><g><rect width="395.52" height="99.24389815219243" fill="none" stroke-width="8.962371322224001" stroke="#000000" data-fill-palette-color="none" data-stroke-palette-color="tertiary"></rect><rect width="395.52" height="31.716061638502918" y="99.24389815219243" fill="#000000" data-fill-palette-color="tertiary"></rect></g><g><svg viewBox="0 0 395.52 98.24389815219243" height="98.24389815219243" width="395.52"><g transform="matrix(1,0,0,1,23.461705032,23.461705032)"><svg width="348.596589936" viewBox="4.49 -36.01 244.59 36.01" height="51.32048808819243" data-palette-color="#e9e4de"><path d="M9.5 0L4.49 0 4.49-35.01 23.66-35.01Q32.15-35.01 32.15-26.49L32.15-26.49 32.15-21.51Q32.15-12.99 23.66-12.99L23.66-12.99 9.5-12.99 9.5 0ZM9.5-30L9.5-17.99 23.39-17.99Q25.39-17.99 26.27-18.87 27.15-19.75 27.15-21.75L27.15-21.75 27.15-26.25Q27.15-28.25 26.27-29.13 25.39-30 23.39-30L23.39-30 9.5-30ZM55.83-21.19L43.43-21.19 43.43-4.81 55.83-4.81 55.83-9.2 60.64-9.2 60.64-4.81Q60.64-3.81 60.26-2.93 59.89-2.05 59.24-1.4 58.59-0.76 57.71-0.38 56.83 0 55.83 0L55.83 0 43.43 0Q42.45 0 41.57-0.38 40.7-0.76 40.05-1.4 39.4-2.05 39.02-2.93 38.64-3.81 38.64-4.81L38.64-4.81 38.64-21.19Q38.64-22.19 39.02-23.07 39.4-23.95 40.05-24.6 40.7-25.24 41.57-25.62 42.45-26 43.43-26L43.43-26 55.83-26Q56.83-26 57.71-25.62 58.59-25.24 59.24-24.6 59.89-23.95 60.26-23.07 60.64-22.19 60.64-21.19L60.64-21.19 60.64-16.8 55.83-16.8 55.83-21.19ZM81.64 0L76.14 0 66.13-35.01 71.14-35.01 78.9-7.15 86.64-35.01 91.65-35.01 99.38-7.15 107.15-35.01 112.15-35.01 102.14 0 96.65 0 89.16-26.25 81.64 0ZM138.64-21.19L138.64-4.81Q138.64-3.81 138.26-2.93 137.88-2.05 137.24-1.4 136.59-0.76 135.72-0.38 134.86 0 133.85 0L133.85 0 120.94 0Q119.96 0 119.08-0.38 118.21-0.76 117.56-1.4 116.91-2.05 116.53-2.93 116.15-3.81 116.15-4.81L116.15-4.81 116.15-21.19Q116.15-22.19 116.53-23.07 116.91-23.95 117.56-24.6 118.21-25.24 119.08-25.62 119.96-26 120.94-26L120.94-26 133.85-26Q134.86-26 135.72-25.62 136.59-25.24 137.24-24.6 137.88-23.95 138.26-23.07 138.64-22.19 138.64-21.19L138.64-21.19ZM133.85-21.19L120.94-21.19 120.94-4.81 133.85-4.81 133.85-21.19ZM161.34-21.19L151.43-21.19 151.43 0 146.65 0 146.65-26 151.43-26 151.43-21.41Q151.48-22.36 151.87-23.21 152.26-24.05 152.91-24.67 153.55-25.29 154.41-25.65 155.26-26 156.24-26L156.24-26 161.34-26Q162.34-26 163.21-25.62 164.08-25.24 164.74-24.6 165.4-23.95 165.77-23.07 166.15-22.19 166.15-21.19L166.15-21.19 166.15-16.8 161.34-16.8 161.34-21.19ZM196.08 0L189.32 0 176.92-11.11 176.92 0 172.13 0 172.13-36.01 176.92-36.01 176.92-15.75 188.32-26 195.08-26 181.12-13.45 196.08 0ZM221.57-21.19L221.57-10.55 204.36-10.55 204.36-4.81 221.57-4.81 221.57 0 204.36 0Q203.38 0 202.5-0.38 201.62-0.76 200.97-1.4 200.33-2.05 199.95-2.93 199.57-3.81 199.57-4.81L199.57-4.81 199.57-21.19Q199.57-22.19 199.95-23.07 200.33-23.95 200.97-24.6 201.62-25.24 202.5-25.62 203.38-26 204.36-26L204.36-26 216.76-26Q217.76-26 218.64-25.62 219.52-25.24 220.16-24.6 220.81-23.95 221.19-23.07 221.57-22.19 221.57-21.19L221.57-21.19ZM216.76-21.19L204.36-21.19 204.36-15.36 216.76-15.36 216.76-21.19ZM244.27-21.19L234.36-21.19 234.36 0 229.57 0 229.57-26 234.36-26 234.36-21.41Q234.41-22.36 234.8-23.21 235.19-24.05 235.83-24.67 236.48-25.29 237.34-25.65 238.19-26 239.17-26L239.17-26 244.27-26Q245.27-26 246.14-25.62 247-25.24 247.66-24.6 248.32-23.95 248.7-23.07 249.08-22.19 249.08-21.19L249.08-21.19 249.08-16.8 244.27-16.8 244.27-21.19Z" opacity="1" transform="matrix(1,0,0,1,0,0)" fill="#000000" class="wordmark-text-0" data-fill-palette-color="primary" id="text-0"></path></svg></g></svg></g><g transform="matrix(1,0,0,1,159.82032973000003,98.24389815219243)"><svg viewBox="0 0 75.8793405399999 31.716061638502914" height="31.716061638502914" width="75.8793405399999"><g transform="matrix(1,0,0,1,20.000000000000004,3.2)"><svg width="35.879340539999895" viewBox="4.25 -35 50.1 35.35" height="25.316061638502916" data-palette-color="#14293a"><path d="M8.25-17.8L16.6-17.8Q19.4-17.8 21.15-18.65 22.9-19.5 23.73-21.05 24.55-22.6 24.55-24.65L24.55-24.65Q24.55-27.9 22.68-29.7 20.8-31.5 16.6-31.5L16.6-31.5 8.25-31.5 8.25-17.8ZM28.5-24.65L28.5-24.65Q28.5-22.6 27.83-20.73 27.15-18.85 25.7-17.4 24.25-15.95 22-15.13 19.75-14.3 16.6-14.3L16.6-14.3 8.25-14.3 8.25 0 4.25 0 4.25-35 16.6-35Q20.7-35 23.33-33.6 25.95-32.2 27.23-29.85 28.5-27.5 28.5-24.65ZM43.35 0.35L43.35 0.35Q39.7 0.35 36.95-1.25 34.2-2.85 32.67-5.73 31.15-8.6 31.15-12.4L31.15-12.4Q31.15-16.25 32.67-19.18 34.2-22.1 36.95-23.73 39.7-25.35 43.35-25.35L43.35-25.35Q47.2-25.35 50.1-23.58 53-21.8 54.3-18.65L54.3-18.65 50.85-17.45Q50.1-19.45 48.12-20.63 46.15-21.8 43.55-21.8L43.55-21.8Q41-21.8 39.12-20.65 37.25-19.5 36.22-17.4 35.2-15.3 35.2-12.45L35.2-12.45Q35.2-8.25 37.45-5.73 39.7-3.2 43.45-3.2L43.45-3.2Q46-3.2 48-4.35 50-5.5 50.95-7.45L50.95-7.45 54.35-6.25Q53-3.15 50.1-1.4 47.2 0.35 43.35 0.35Z" opacity="1" transform="matrix(1,0,0,1,0,0)" fill="#ffffff" class="slogan-text-1" data-fill-palette-color="quaternary" id="text-1"></path></svg></g></svg></g></svg></g></svg></g></svg></g><defs></defs></svg><rect width="395.52" height="129.95995979069534" fill="none" stroke="none" visibility="hidden"></rect></g></svg></g></svg>